<svg width="18" height="14" viewBox="0 0 18 14" fill="none" xmlns="http://www.w3.org/2000/svg">
<path d="M17.1 0.875H0.9C0.403031 0.875 0 1.26684 0 1.75V12.25C0 12.7332 0.403031 13.125 0.9 13.125H17.1C17.597 13.125 18 12.7332 18 12.25V1.75C18 1.26684 17.597 0.875 17.1 0.875ZM4.95 8.96547V9.40625C4.95 9.52711 4.84931 9.625 4.725 9.625H4.275C4.15069 9.625 4.05 9.52711 4.05 9.40625V8.96082C3.73247 8.94496 3.42366 8.83723 3.16772 8.65047C3.05803 8.57035 3.05241 8.41066 3.15169 8.31852L3.48216 8.01199C3.56006 7.93981 3.67594 7.93652 3.76706 7.99203C3.87591 8.0582 3.99937 8.09375 4.12762 8.09375H4.91822C5.10103 8.09375 5.25009 7.93187 5.25009 7.73309C5.25009 7.57039 5.14856 7.42711 5.00344 7.385L3.73781 7.01586C3.21497 6.86328 2.84962 6.37547 2.84962 5.82941C2.84962 5.15895 3.38541 4.61426 4.04972 4.59703V4.15625C4.04972 4.03539 4.15041 3.9375 4.27472 3.9375H4.72472C4.84903 3.9375 4.94972 4.03539 4.94972 4.15625V4.60168C5.26725 4.61754 5.57606 4.725 5.832 4.91203C5.94169 4.99215 5.94731 5.15184 5.84803 5.24398L5.51756 5.55051C5.43966 5.6227 5.32378 5.62598 5.23266 5.57047C5.12381 5.50402 5.00034 5.46875 4.87209 5.46875H4.0815C3.89869 5.46875 3.74963 5.63063 3.74963 5.82941C3.74963 5.99211 3.85116 6.13539 3.99628 6.1775L5.26191 6.54664C5.78475 6.69922 6.15009 7.18703 6.15009 7.73309C6.15009 8.40383 5.61431 8.94824 4.95 8.96547ZM11.7 8.53125C11.7 8.65211 11.5993 8.75 11.475 8.75H8.325C8.20069 8.75 8.1 8.65211 8.1 8.53125V8.09375C8.1 7.97289 8.20069 7.875 8.325 7.875H11.475C11.5993 7.875 11.7 7.97289 11.7 8.09375V8.53125ZM16.2 8.53125C16.2 8.65211 16.0993 8.75 15.975 8.75H13.725C13.6007 8.75 13.5 8.65211 13.5 8.53125V8.09375C13.5 7.97289 13.6007 7.875 13.725 7.875H15.975C16.0993 7.875 16.2 7.97289 16.2 8.09375V8.53125ZM16.2 5.90625C16.2 6.02711 16.0993 6.125 15.975 6.125H8.325C8.20069 6.125 8.1 6.02711 8.1 5.90625V5.46875C8.1 5.34789 8.20069 5.25 8.325 5.25H15.975C16.0993 5.25 16.2 5.34789 16.2 5.46875V5.90625Z" fill="#606060"/>
</svg>
