<svg width="20" height="20" viewBox="0 0 20 20" fill="none" xmlns="http://www.w3.org/2000/svg">
<path d="M2.5 5C2.36739 5 2.24021 5.05268 2.14645 5.14645C2.05268 5.24021 2 5.36739 2 5.5C2 5.63261 2.05268 5.75979 2.14645 5.85355C2.24021 5.94732 2.36739 6 2.5 6H17.5C17.6326 6 17.7598 5.94732 17.8536 5.85355C17.9473 5.75979 18 5.63261 18 5.5C18 5.36739 17.9473 5.24021 17.8536 5.14645C17.7598 5.05268 17.6326 5 17.5 5H2.5ZM2.5 8C2.36739 8 2.24021 8.05268 2.14645 8.14645C2.05268 8.24021 2 8.36739 2 8.5C2 8.63261 2.05268 8.75979 2.14645 8.85355C2.24021 8.94732 2.36739 9 2.5 9H17.5C17.6326 9 17.7598 8.94732 17.8536 8.85355C17.9473 8.75979 18 8.63261 18 8.5C18 8.36739 17.9473 8.24021 17.8536 8.14645C17.7598 8.05268 17.6326 8 17.5 8H2.5ZM2 11.5C2 11.3674 2.05268 11.2402 2.14645 11.1464C2.24021 11.0527 2.36739 11 2.5 11H17.5C17.6326 11 17.7598 11.0527 17.8536 11.1464C17.9473 11.2402 18 11.3674 18 11.5C18 11.6326 17.9473 11.7598 17.8536 11.8536C17.7598 11.9473 17.6326 12 17.5 12H2.5C2.36739 12 2.24021 11.9473 2.14645 11.8536C2.05268 11.7598 2 11.6326 2 11.5ZM2.5 14C2.36739 14 2.24021 14.0527 2.14645 14.1464C2.05268 14.2402 2 14.3674 2 14.5C2 14.6326 2.05268 14.7598 2.14645 14.8536C2.24021 14.9473 2.36739 15 2.5 15H12.5C12.6326 15 12.7598 14.9473 12.8536 14.8536C12.9473 14.7598 13 14.6326 13 14.5C13 14.3674 12.9473 14.2402 12.8536 14.1464C12.7598 14.0527 12.6326 14 12.5 14H2.5Z" fill="#606060"/>
</svg>
