<svg width="19" height="19" viewBox="0 0 19 19" fill="none" xmlns="http://www.w3.org/2000/svg">
<path d="M7.04893 13.0625H9.91318C9.9018 13.1942 9.89598 13.3262 9.89576 13.4584C9.89576 14.4092 10.2576 15.3275 10.9028 16.2197C10.4753 16.9789 9.98681 17.4159 9.49993 17.4159C8.55231 17.4159 7.59993 15.7582 7.09485 13.2961L7.04893 13.0633V13.0625ZM6.86685 11.875H10.1918C10.5813 10.8812 11.3211 10.0643 12.2716 9.57842V9.50084C12.2716 8.95775 12.251 8.42813 12.2114 7.9175H6.78847L6.76235 8.30384C6.69356 9.49502 6.72852 10.6899 6.86685 11.875V11.875ZM14.2499 9.10421C14.8306 9.10338 15.4055 9.21913 15.9406 9.4446C16.4757 9.67007 16.9602 10.0007 17.3651 10.4168C17.4615 9.58307 17.426 8.73937 17.2598 7.91671H13.4044L13.4345 8.43684C13.4464 8.68067 13.4535 8.92767 13.4575 9.17625C13.714 9.12875 13.98 9.10421 14.2499 9.10421ZM2.42718 13.0633H5.8361C6.12426 14.7116 6.61431 16.1144 7.25476 17.0953C5.24198 16.4979 3.54775 15.1276 2.54276 13.2842L2.42718 13.0633ZM1.74081 7.9175H5.59622C5.5134 9.08278 5.52214 10.2528 5.62235 11.4167L5.66747 11.8758H1.94426C1.54325 10.5948 1.47298 9.23304 1.74001 7.9175H1.74081ZM11.8306 2.04017L11.7451 1.90559C12.9218 2.25483 14.0015 2.87219 14.8993 3.70915C15.7971 4.54612 16.4886 5.57988 16.9194 6.72921H13.2857C13.0355 4.81654 12.5281 3.17304 11.8306 2.04017V2.04017ZM7.15818 1.93488L7.25476 1.90559C6.55731 2.97434 6.03876 4.54104 5.76326 6.38088L5.71418 6.72921H2.08201C2.50673 5.5958 3.18499 4.57451 4.06492 3.74342C4.94486 2.91233 6.00318 2.29345 7.15897 1.93409L7.15818 1.93488ZM9.49993 1.58496C10.5441 1.58496 11.5947 3.59738 12.0443 6.47984L12.0816 6.72921H6.91831C7.3466 3.71375 8.42643 1.58496 9.49993 1.58496ZM17.8124 13.4584C17.8124 12.5135 17.4371 11.6074 16.769 10.9393C16.1009 10.2712 15.1948 9.89588 14.2499 9.89588C13.3051 9.89588 12.399 10.2712 11.7309 10.9393C11.0628 11.6074 10.6874 12.5135 10.6874 13.4584C10.6874 14.9333 11.8116 16.4786 14.0124 18.1292C14.0809 18.1806 14.1643 18.2084 14.2499 18.2084C14.3356 18.2084 14.4189 18.1806 14.4874 18.1292C16.6883 16.4786 17.8124 14.9333 17.8124 13.4584ZM13.0624 13.4584C13.0624 13.1434 13.1875 12.8414 13.4102 12.6187C13.6329 12.396 13.935 12.2709 14.2499 12.2709C14.5649 12.2709 14.8669 12.396 15.0896 12.6187C15.3123 12.8414 15.4374 13.1434 15.4374 13.4584C15.4374 13.7733 15.3123 14.0754 15.0896 14.2981C14.8669 14.5208 14.5649 14.6459 14.2499 14.6459C13.935 14.6459 13.6329 14.5208 13.4102 14.2981C13.1875 14.0754 13.0624 13.7733 13.0624 13.4584Z" fill="#606060"/>
</svg>
