<svg width="20" height="17" viewBox="0 0 20 17" fill="none" xmlns="http://www.w3.org/2000/svg">
<path d="M14.1667 3.98438C14.1667 5.79727 11.6285 9.02793 10.5139 10.3295C10.2465 10.6781 9.75347 10.6781 9.48611 10.3295C8.37153 9.02793 5.83333 5.79727 5.83333 3.98438C5.83333 1.784 7.69792 0 10 0C12.3021 0 14.1667 1.784 14.1667 3.98438ZM10 5.04688C10.7674 5.04688 11.3889 4.45254 11.3889 3.71875C11.3889 2.98529 10.7674 2.39062 10 2.39062C9.23264 2.39062 8.61111 2.98529 8.61111 3.71875C8.61111 4.45254 9.23264 5.04688 10 5.04688ZM14.7778 5.96992C14.7951 5.93008 14.8125 5.89023 14.8299 5.84707L18.8576 4.30645C19.4062 4.09727 20 4.48242 20 5.04688V14.0383C20 14.3637 19.7917 14.6559 19.4757 14.7787L14.4444 16.7012V6.65391C14.566 6.4248 14.6771 6.19902 14.7778 5.96992ZM5.22222 5.96992C5.32292 6.19902 5.43403 6.4248 5.55556 6.65391V15.0012L1.14271 16.6912C0.595486 16.8705 0 16.5152 0 15.9508V6.95938C0 6.63398 0.207465 6.31191 0.523958 6.21895L4.77778 4.59199C4.86111 5.06348 5.03125 5.53164 5.22222 5.96992ZM11.3819 10.9936C11.8646 10.4457 12.6215 9.50605 13.3333 8.4668V16.7443L6.66667 14.9215V8.4668C7.37847 9.50605 8.13542 10.4457 8.61806 10.9936C9.32986 11.8734 10.6701 11.8734 11.3819 10.9936Z" fill="#606060"/>
</svg>
